<?xml version="1.0"?>
<svg width="1280" height="802" xmlns="http://www.w3.org/2000/svg" xmlns:svg="http://www.w3.org/2000/svg" preserveAspectRatio="xMidYMid meet">
 <metadata>Created by potrace 1.15, written by Peter Selinger 2001-2017</metadata>
 <g class="layer">
  <title>Layer 1</title>
  <g fill="#000000" id="svg_1" transform="translate(0 802) scale(0.1 -0.1)">
   <path d="m1479.785848,7918.354756c-158.52126,-39.992823 -299.429047,-200.939548 -342.204625,-391.149314c-10.903579,-49.74717 -12.581052,-463.331481 -12.581052,-3506.687739l0,-3450.112526l17.613473,-66.329559c24.323368,-92.666296 64.582736,-166.799333 129.165471,-237.030632c59.550315,-64.37869 109.874524,-98.518904 200.458101,-133.634554l58.711578,-23.410433l4970.35443,0l4970.35443,0l69.615157,33.16478c37.743157,18.533259 87.22863,47.7963 109.874524,64.37869c55.356631,41.943692 124.13305,129.732815 156.843786,200.939548c57.034104,124.855641 52.84042,-173.627376 51.162946,3644.224031l-2.51621,3455.965135l-17.613473,53.648908c-31.033263,95.5926 -52.84042,134.609988 -109.874524,204.841287c-40.259368,49.74717 -71.29263,78.034776 -114.906945,102.420643c-119.939366,68.280429 343.043362,63.403255 -5129.714427,62.427821c-4129.101394,0 -4961.128325,-2.926304 -5004.74264,-13.656086zm6531.243663,-985.189045c0,-115.101294 2.51621,-209.71846 6.709895,-209.71846c3.354947,0 35.226947,46.820865 72.131367,102.420643l66.260209,102.420643l87.22863,0l87.22863,0l-16.774737,-28.287606c-10.064842,-15.606955 -46.130525,-69.255864 -80.518735,-118.027598c-34.38821,-49.74717 -62.905262,-93.641731 -62.905262,-98.518904c0,-4.877173 38.581894,-76.083906 86.389893,-158.020421c46.969262,-80.96108 87.22863,-151.192378 88.067367,-155.094117c1.677474,-4.877173 -36.90442,-7.803478 -85.551156,-7.803478l-89.74484,0l-39.420631,74.133037c-21.807157,40.968257 -54.517894,96.568035 -72.970104,124.855641l-33.549473,49.74717l-5.032421,-29.263041c-3.354947,-15.606955 -5.871158,-72.182168 -6.709895,-124.855641l-0.838737,-95.5926l-72.970104,2.926304l-73.808841,2.926304l-2.51621,388.22301l-1.677474,387.247575l75.486314,0l75.486314,0l0,-209.71846zm-1450.175972,170.701072c63.743999,-14.63152 101.487156,-39.992823 122.455577,-83.887384c31.871999,-64.37869 22.645894,-137.536292 -26.839578,-212.644764l-21.807157,-33.16478l35.226947,-28.287606c58.711578,-45.845431 70.453893,-71.206733 70.453893,-154.118682c0,-63.403255 -2.51621,-76.083906 -25.162105,-113.150425c-59.550315,-98.518904 -124.971787,-119.003033 -356.463151,-114.12586l-130.004208,2.926304l-2.51621,185.332593c-1.677474,102.420643 0,270.195411 2.51621,373.591489l5.871158,187.283462l140.907787,0c77.163788,0 160.198734,-4.877173 185.360839,-9.754347zm2346.785639,-173.627376c128.326734,-272.146281 118.261892,-270.195411 118.261892,-23.410433l0,206.792156l71.29263,0l70.453893,0l2.51621,-192.160635c1.677474,-106.322382 1.677474,-276.048019 0,-376.517793l-1.677474,-183.381723l-77.163788,2.926304l-76.325051,2.926304l-87.22863,185.332593c-47.807999,102.420643 -103.16463,216.546503 -122.455577,253.613021l-35.226947,68.280429l-2.51621,-255.563891l-1.677474,-256.539326l-71.29263,0l-71.29263,0l0,375.542359l0,375.542359l98.970945,0l98.132209,0l87.22863,-183.381723zm-1794.058071,-2.926304c43.614315,-17.557825 83.873683,-55.599778 97.293472,-92.666296c9.226105,-24.385867 11.742316,-86.813688 11.742316,-252.637587l0,-219.472807l-67.098946,0c-60.389051,0 -67.098946,1.950869 -76.325051,22.434998c-5.032421,11.705216 -10.903579,22.434998 -11.742316,24.385867c-1.677474,1.950869 -16.774737,-7.803478 -35.226947,-21.459563c-94.777261,-72.182168 -198.780628,-49.74717 -243.233679,52.673474c-44.453052,100.469774 -10.903579,208.743025 78.002525,253.613021c36.065684,18.533259 132.520418,39.017388 182.844628,39.017388c37.743157,0 38.581894,15.606955 5.032421,53.648908c-20.129684,22.434998 -34.38821,29.263041 -74.647578,32.189345c-43.614315,3.901739 -65.421472,-0.975435 -161.037471,-33.16478c-12.581052,-3.901739 -13.419789,3.901739 -10.064842,61.452386c2.51621,36.091084 5.871158,68.280429 8.387368,71.206733c1.677474,1.950869 28.517052,9.754347 59.550315,16.58239c64.582736,13.656086 192.90947,9.754347 236.523785,-7.803478zm579.567147,-1.950869c26.000842,-16.58239 41.936841,-36.091084 56.195367,-68.280429c18.45221,-40.968257 20.968421,-60.476951 25.162105,-214.595634c1.677474,-92.666296 1.677474,-194.111505 -1.677474,-224.349981l-5.871158,-55.599778l-69.615157,0l-69.615157,0l-5.871158,183.381723c-3.354947,101.445209 -8.387368,197.037809 -12.581052,212.644764c-5.871158,26.336737 -9.226105,28.287606 -52.001683,31.21391c-26.000842,1.950869 -56.195367,-1.950869 -68.77642,-6.828043l-22.645894,-10.729782l0,-204.841287l0,-204.841287l-75.486314,0l-75.486314,0l0,282.876062l0,282.876062l75.486314,0c74.647578,0 75.486314,0 75.486314,-24.385867c0,-29.263041 2.51621,-30.238476 40.259368,-2.926304c71.29263,50.722604 130.842945,58.526082 187.038312,24.385867zm1840.188596,11.705216c70.453893,-12.680651 106.519577,-35.115649 135.875366,-85.838253c18.45221,-32.189345 19.290947,-39.992823 19.290947,-260.441064l0,-228.251719l-71.29263,0c-70.453893,0 -71.29263,0 -71.29263,24.385867c0,13.656086 -1.677474,24.385867 -3.354947,24.385867c-1.677474,0 -31.871999,-15.606955 -67.098946,-35.115649c-70.453893,-39.017388 -101.487156,-40.968257 -159.359997,-8.778912c-60.389051,33.16478 -94.777261,144.364335 -68.77642,223.374546c26.000842,79.010211 82.196209,116.076729 206.329259,132.659119c106.519577,14.63152 104.003366,13.656086 87.22863,43.894561c-30.194526,53.648908 -103.16463,68.280429 -196.264417,39.017388c-68.77642,-21.459563 -67.098946,-22.434998 -67.098946,48.771735l0,62.427821l31.871999,6.828043c36.065684,7.803478 114.906945,20.484129 141.746524,22.434998c10.064842,0 46.969262,-3.901739 82.196209,-9.754347zm594.66441,-2.926304c15.097263,-6.828043 41.098104,-27.312172 57.872841,-43.894561l30.194526,-31.21391l42.775578,34.140214c74.647578,59.501517 132.520418,67.304994 191.231996,25.361302c52.001683,-37.066519 60.389051,-78.034776 66.260209,-324.819754l5.032421,-218.497372l-72.970104,-7.803478c-40.259368,-3.901739 -75.486314,-3.901739 -78.841262,-0.975435c-2.51621,3.901739 -5.871158,90.715427 -5.871158,194.111505c-0.838737,198.988678 -5.032421,226.30085 -40.259368,236.055197c-10.064842,2.926304 -35.226947,0 -56.195367,-7.803478l-37.743157,-12.680651l-2.51621,-200.939548c-2.51621,-231.178023 5.871158,-212.644764 -94.777261,-212.644764l-56.195367,0l-2.51621,200.939548c-3.354947,198.988678 -3.354947,200.939548 -24.323368,220.448242c-20.968421,19.508694 -49.485473,18.533259 -97.293472,-1.950869l-20.129684,-9.754347l0,-204.841287l0,-204.841287l-70.453893,0c-65.421472,0 -70.453893,0.975435 -75.486314,22.434998c-2.51621,11.705216 -5.032421,138.511727 -5.032421,282.876062l0,260.441064l75.486314,0c74.647578,0 75.486314,0 75.486314,-24.385867c0,-29.263041 2.51621,-30.238476 40.259368,-2.926304c62.905262,44.869996 109.874524,55.599778 156.00505,33.16478zm816.929668,-17.557825c67.937683,-37.066519 97.293472,-99.494339 107.358314,-230.202589l5.871158,-70.231298l-169.424839,0c-124.13305,0 -168.586102,-2.926304 -168.586102,-11.705216c0,-5.852608 7.548631,-30.238476 16.774737,-52.673474c22.645894,-53.648908 62.066525,-76.083906 130.004208,-76.083906c46.130525,0 71.29263,8.778912 170.263576,59.501517c7.548631,3.901739 10.064842,-13.656086 10.064842,-69.255864l0,-73.157602l-43.614315,-16.58239c-24.323368,-8.778912 -80.518735,-17.557825 -124.971787,-20.484129c-144.262734,-9.754347 -234.846311,39.017388 -281.815573,151.192378c-20.129684,47.7963 -23.484631,67.304994 -23.484631,138.511727c0.838737,62.427821 5.032421,93.641731 17.613473,127.781945c23.484631,58.526082 65.421472,112.17499 107.358314,137.536292c67.937683,39.992823 179.489681,42.919127 246.588627,5.852608zm-7196.361966,-1106.142947c49.485473,-28.287606 80.518735,-67.304994 105.68084,-130.70825c15.097263,-38.041953 17.613473,-67.304994 20.129684,-225.325415l3.354947,-181.430854l-143.423997,-5.852608c-78.841262,-3.901739 -194.586944,-3.901739 -258.330942,0l-115.745682,5.852608l-25.162105,-60.476951c-13.419789,-33.16478 -29.355789,-65.354125 -35.226947,-71.206733c-5.871158,-5.852608 -10.903579,-31.21391 -10.903579,-57.550647c0,-37.066519 5.032421,-56.575212 24.323368,-86.813688c66.260209,-106.322382 50.32421,-290.67954 -33.549473,-388.22301c-103.16463,-120.953903 -316.203783,-123.880207 -423.562097,-5.852608c-30.194526,32.189345 -64.582736,144.364335 -74.647578,239.956936c-5.871158,52.673474 -5.032421,56.575212 29.355789,112.17499c31.871999,52.673474 34.38821,61.452386 31.871999,111.199556l-2.51621,52.673474l-9.226105,-45.845431c-5.032421,-25.361302 -24.323368,-72.182168 -41.936841,-104.371513l-32.710736,-58.526082l-243.233679,-2.926304c-133.359155,-1.950869 -246.588627,0 -249.943574,2.926304c-3.354947,2.926304 -5.871158,171.676507 -4.193684,375.542359l2.51621,369.68975l22.645894,44.869996c26.839578,52.673474 64.582736,92.666296 111.551998,117.052164c31.871999,16.58239 72.131367,18.533259 671.828198,18.533259l637.439988,0l43.614315,-25.361302zm71.29263,-569.653864l56.195367,0l-1.677474,-162.897595l-2.51621,-163.873029l-240.717469,-2.926304l-239.878732,-1.950869l-29.355789,45.845431c-60.389051,96.568035 -62.066525,120.953903 -20.968421,229.227154l26.839578,69.255864l197.941891,-5.852608c108.197051,-3.901739 222.265259,-6.828043 254.137258,-6.828043zm-1066.034506,-441.871918c6.709895,-85.838253 45.291789,-192.160635 89.74484,-247.760413c13.419789,-17.557825 24.323368,-32.189345 22.645894,-32.189345c-0.838737,0 -39.420631,6.828043 -85.551156,14.63152c-57.034104,9.754347 -150.972629,14.63152 -302.783994,14.63152l-220.587785,0l0,165.823899l0,165.823899l245.74989,-1.950869l244.911153,-2.926304l5.871158,-76.083906zm1015.710296,61.452386l106.519577,0l0,-150.216943l0,-150.216943l-223.942733,-4.877173c-149.295155,-3.901739 -243.233679,-9.754347 -279.299363,-19.508694c-30.194526,-7.803478 -67.098946,-16.58239 -82.196209,-20.484129l-28.517052,-5.852608l41.936841,56.575212c62.066525,83.887384 67.098946,98.518904 89.74484,269.219977l5.032421,38.041953l131.681682,-5.852608c72.131367,-3.901739 179.489681,-6.828043 239.039995,-6.828043zm-904.158298,-378.468663c60.389051,-5.852608 121.61684,-9.754347 136.714103,-10.729782l26.839578,-0.975435l0,-86.813688l0,-86.813688l-72.970104,-5.852608c-114.906945,-9.754347 -504.919569,0 -546.017674,12.680651c-45.291789,14.63152 -96.454735,67.304994 -128.326734,132.659119c-13.419789,26.336737 -24.323368,52.673474 -24.323368,56.575212c0,9.754347 467.176412,1.950869 608.084199,-10.729782zm1001.45177,-8.778912c-15.936,-55.599778 -69.615157,-123.880207 -119.100629,-153.143248l-48.646736,-29.263041l-284.331784,0c-156.00505,-0.975435 -286.009258,1.950869 -288.525468,4.877173c-2.51621,2.926304 -7.548631,42.919127 -10.064842,89.739992l-5.871158,84.862819l104.003366,0c57.034104,0.975435 135.875366,6.828043 175.295997,13.656086c44.453052,8.778912 148.456418,13.656086 278.460626,14.63152l207.167996,0.975435l-8.387368,-26.336737zm1633.0206,-822.29145l137.552839,0l0,-108.273251c0,-133.634554 -9.226105,-158.995856 -81.357472,-226.30085l-52.84042,-49.74717l-0.838737,-87.789123c-0.838737,-48.771735 -3.354947,-99.494339 -6.709895,-111.199556l-5.032421,-23.410433l-16.774737,21.459563c-14.258526,18.533259 -17.613473,38.041953 -19.290947,131.683684l-3.354947,109.248686l68.77642,72.182168l68.77642,72.182168l-5.032421,62.427821c-2.51621,34.140214 -5.871158,64.37869 -7.548631,66.329559c-2.51621,1.950869 -41.098104,4.877173 -86.389893,5.852608c-73.808841,1.950869 -86.389893,-0.975435 -115.745682,-20.484129c-36.90442,-25.361302 -41.098104,-22.434998 -55.356631,37.066519c-13.419789,55.599778 -11.742316,61.452386 17.613473,54.624343c14.258526,-2.926304 88.067367,-5.852608 163.553681,-5.852608zm1465.273235,3.901739l31.033263,-6.828043l0,-259.46563c0,-142.413466 -2.51621,-276.048019 -5.032421,-295.556713c-5.871158,-37.066519 -5.871158,-37.066519 -46.969262,-37.066519l-41.936841,0l5.871158,46.820865c3.354947,25.361302 11.742316,61.452386 18.45221,79.985645c9.226105,26.336737 10.903579,54.624343 6.709895,119.978468l-5.871158,84.862819l-124.13305,0c-105.68084,0 -124.971787,1.950869 -129.165471,15.606955c-2.51621,8.778912 -5.032421,67.304994 -5.032421,130.70825l0,116.076729l31.871999,3.901739c53.679157,5.852608 230.652627,6.828043 264.2021,0.975435zm2483.499741,-13.656086c15.936,0 15.936,-5.852608 10.903579,-171.676507l-5.871158,-172.651942l58.711578,4.877173c31.871999,2.926304 67.098946,11.705216 77.163788,19.508694c18.45221,14.63152 19.290947,18.533259 15.936,143.388901c-2.51621,120.953903 -1.677474,127.781945 12.581052,121.929337c9.226105,-3.901739 20.968421,-10.729782 26.839578,-16.58239c12.581052,-11.705216 13.419789,-81.936515 0.838737,-158.020421c-7.548631,-48.771735 -6.709895,-60.476951 6.709895,-89.739992c14.258526,-31.21391 14.258526,-34.140214 0,-62.427821c-10.903579,-22.434998 -14.258526,-52.673474 -14.258526,-123.880207c-0.838737,-85.838253 -1.677474,-92.666296 -12.581052,-76.083906c-8.387368,12.680651 -12.581052,41.943692 -12.581052,84.862819c0,96.568035 -9.226105,113.150425 -63.743999,121.929337c-25.162105,2.926304 -65.421472,2.926304 -90.583577,0l-45.291789,-6.828043l-5.871158,159.97129c-6.709895,168.750203 -0.838737,250.686717 15.097263,232.153458c5.032421,-5.852608 16.774737,-10.729782 26.000842,-10.729782zm-5865.286623,0c15.097263,-9.754347 15.936,-22.434998 15.936,-165.823899l0,-156.069552l74.647578,0l73.808841,0l5.032421,115.101294c4.193684,121.929337 14.258526,176.55368 26.000842,142.413466c3.354947,-9.754347 8.387368,-70.231298 10.903579,-133.634554c5.032421,-107.297817 6.709895,-116.076729 25.162105,-133.634554l20.968421,-18.533259l-17.613473,-26.336737c-15.097263,-22.434998 -17.613473,-39.017388 -17.613473,-121.929337c0,-53.648908 -3.354947,-96.568035 -6.709895,-96.568035c-4.193684,0 -14.258526,5.852608 -23.484631,13.656086c-13.419789,11.705216 -16.774737,29.263041 -20.129684,105.346947l-4.193684,90.715427l-99.809682,2.926304l-99.809682,2.926304l5.871158,59.501517c2.51621,32.189345 5.032421,119.978468 5.032421,194.111505c0,75.108472 2.51621,135.585423 5.032421,135.585423c2.51621,0 11.742316,-4.877173 20.968421,-9.754347zm3719.797823,0l62.066525,0l0.838737,-104.371513c0.838737,-131.683684 5.032421,-151.192378 36.065684,-159.97129c13.419789,-4.877173 27.678315,-13.656086 31.033263,-20.484129c8.387368,-14.63152 10.064842,-191.185201 2.51621,-244.834109c-3.354947,-23.410433 -12.581052,-40.968257 -23.484631,-47.7963c-18.45221,-11.705216 -224.781469,-14.63152 -255.814732,-2.926304c-27.678315,9.754347 -35.226947,51.698039 -32.710736,180.455419l2.51621,121.929337l31.033263,19.508694l31.871999,19.508694l0,125.831076l0,125.831076l26.000842,-6.828043c14.258526,-2.926304 54.517894,-5.852608 88.067367,-5.852608zm573.695989,-6.828043c2.51621,-2.926304 5.032421,-53.648908 6.709895,-114.12586c3.354947,-106.322382 2.51621,-110.224121 -19.290947,-140.462596c-11.742316,-16.58239 -40.259368,-45.845431 -62.905262,-65.354125l-41.098104,-35.115649l-2.51621,-109.248686l-2.51621,-109.248686l-22.645894,-2.926304c-26.839578,-3.901739 -26.839578,-7.803478 -23.484631,154.118682l1.677474,102.420643l62.066525,68.280429l62.066525,68.280429l0,71.206733l0,70.231298l-73.808841,0c-65.421472,0 -128.326734,-12.680651 -170.263576,-33.16478c-11.742316,-5.852608 -15.097263,0.975435 -16.774737,40.968257l-3.354947,47.7963l150.972629,-4.877173c83.034946,-1.950869 152.650102,-6.828043 155.166313,-8.778912zm224.781469,1.950869c4.193684,-3.901739 0.838737,-12.680651 -19.290947,-53.648908c-9.226105,-17.557825 -12.581052,-57.550647 -12.581052,-142.413466l0,-118.027598l115.745682,-5.852608c62.905262,-2.926304 126.649261,-9.754347 140.06905,-14.63152c14.258526,-5.852608 21.807157,-10.729782 16.774737,-10.729782c-5.032421,-0.975435 -8.387368,-45.845431 -8.387368,-115.101294l0,-115.101294l-148.456418,-2.926304c-135.036629,-1.950869 -149.295155,-0.975435 -156.00505,14.63152c-5.032421,9.754347 -8.387368,144.364335 -9.226105,299.458452l-0.838737,281.900628l39.420631,-6.828043c20.968421,-2.926304 40.259368,-7.803478 42.775578,-10.729782zm1125.58482,-0.975435c4.193684,-4.877173 8.387368,-17.557825 10.064842,-28.287606c2.51621,-18.533259 -2.51621,-19.508694 -96.454735,-22.434998l-98.970945,-2.926304l2.51621,-94.617166l2.51621,-94.617166l33.549473,-1.950869c18.45221,-1.950869 61.227788,-5.852608 95.615998,-8.778912l61.227788,-5.852608l-3.354947,-154.118682c-1.677474,-85.838253 -5.032421,-158.020421 -7.548631,-160.946725c-10.064842,-10.729782 -197.103154,-7.803478 -231.491364,4.877173c-34.38821,12.680651 -94.777261,72.182168 -83.873683,83.887384c2.51621,2.926304 28.517052,-0.975435 57.872841,-10.729782c29.355789,-8.778912 81.357472,-18.533259 115.745682,-20.484129c88.906104,-7.803478 96.454735,0 95.615998,102.420643c0,43.894561 -3.354947,81.936515 -6.709895,86.813688c-3.354947,3.901739 -45.291789,8.778912 -93.099788,9.754347l-86.389893,3.901739l-5.871158,134.609988c-3.354947,74.133037 -3.354947,148.266074 0,165.823899l5.871158,32.189345l113.229471,-4.877173c62.066525,-2.926304 115.745682,-8.778912 119.939366,-13.656086zm854.672826,9.754347l52.001683,-6.828043l0.838737,-176.55368c0,-97.54347 0.838737,-211.669329 0.838737,-254.588456c0.838737,-42.919127 -1.677474,-94.617166 -5.032421,-114.12586l-6.709895,-37.066519l-145.101471,0c-144.262734,0 -145.940208,0 -150.972629,22.434998c-10.903579,48.771735 -11.742316,48.771735 89.74484,41.943692c51.162946,-2.926304 109.035787,-1.950869 127.487998,1.950869l33.549473,6.828043l2.51621,68.280429c1.677474,50.722604 -1.677474,77.059341 -12.581052,101.445209l-15.097263,33.16478l-77.163788,-1.950869c-42.775578,-0.975435 -78.002525,0.975435 -78.002525,5.852608c0,3.901739 -2.51621,16.58239 -5.032421,28.287606c-4.193684,19.508694 -2.51621,20.484129 83.873683,15.606955c48.646736,-2.926304 88.906104,-1.950869 88.906104,0.975435c0,2.926304 5.871158,39.992823 12.581052,81.936515c6.709895,41.943692 12.581052,88.764558 12.581052,104.371513l0,28.287606l-72.131367,-6.828043c-40.259368,-2.926304 -96.454735,-2.926304 -126.649261,0c-47.807999,5.852608 -55.356631,9.754347 -66.260209,34.140214l-12.581052,28.287606l108.197051,0c59.550315,0 131.681682,-2.926304 160.198734,-5.852608zm493.177254,-7.803478c8.387368,-8.778912 8.387368,-286.777801 0.838737,-310.188234c-5.871158,-15.606955 -20.129684,-17.557825 -132.520418,-17.557825l-125.810524,0l0.838737,-75.108472c1.677474,-123.880207 -7.548631,-116.076729 131.681682,-116.076729l120.778103,0.975435l10.903579,-32.189345l11.742316,-31.21391l-158.52126,0l-159.359997,0l0,167.774768l0,166.799333l89.74484,-5.852608c92.261051,-5.852608 153.488839,3.901739 170.263576,27.312172c6.709895,8.778912 7.548631,40.968257 3.354947,98.518904l-5.871158,84.862819l-65.421472,-6.828043c-35.226947,-2.926304 -91.422314,-2.926304 -123.294313,0c-51.162946,5.852608 -59.550315,9.754347 -67.937683,30.238476c-5.032421,12.680651 -9.226105,26.336737 -9.226105,29.263041c0,7.803478 300.267784,-1.950869 307.816415,-10.729782zm-8225.492051,-259.46563l0,-263.367368l36.90442,0c45.291789,0 46.969262,3.901739 46.969262,118.027598c0,47.7963 1.677474,86.813688 4.193684,86.813688c1.677474,0 13.419789,-4.877173 25.162105,-11.705216l21.807157,-10.729782l-2.51621,-118.027598l-2.51621,-118.027598l-144.262734,-2.926304l-143.423997,-1.950869l-18.45221,29.263041l-17.613473,29.263041l67.098946,0c36.90442,0 68.77642,3.901739 71.29263,8.778912c2.51621,4.877173 7.548631,109.248686 10.064842,233.128893l5.871158,223.374546l-56.195367,7.803478c-41.098104,4.877173 -62.066525,12.680651 -78.841262,30.238476l-22.645894,22.434998l98.970945,0.975435l98.132209,0l0,-263.367368zm568.663568,246.784979c10.064842,-29.263041 6.709895,-259.46563 -4.193684,-280.925193c-9.226105,-18.533259 -18.45221,-19.508694 -130.004208,-19.508694l-119.939366,0l3.354947,-97.54347c1.677474,-53.648908 4.193684,-99.494339 6.709895,-102.420643c1.677474,-2.926304 60.389051,-5.852608 129.165471,-7.803478l124.971787,-2.926304l0,-29.263041l0,-28.287606l-155.166313,0l-155.166313,0l1.677474,158.995856l2.51621,158.020421l113.229471,1.950869c164.392418,3.901739 150.972629,-5.852608 150.972629,115.101294l0,102.420643l-123.294313,0c-102.325893,0 -124.971787,2.926304 -138.391576,16.58239c-8.387368,8.778912 -15.097263,19.508694 -15.097263,24.385867c0,3.901739 67.937683,7.803478 150.972629,7.803478c136.714103,0 151.811365,-1.950869 157.682523,-16.58239zm442.853044,10.729782c17.613473,-4.877173 17.613473,-9.754347 16.774737,-279.949758c-0.838737,-151.192378 -4.193684,-280.925193 -7.548631,-286.777801c-5.032421,-9.754347 -42.775578,-12.680651 -140.907787,-12.680651l-134.197892,0l-20.968421,27.312172l-21.807157,26.336737l137.552839,4.877173l136.714103,4.877173l2.51621,98.518904l2.51621,99.494339l-82.196209,3.901739c-61.227788,2.926304 -88.067367,7.803478 -104.842103,21.459563c-13.419789,9.754347 -23.484631,21.459563 -23.484631,26.336737c0,4.877173 41.098104,8.778912 92.261051,8.778912c88.906104,0 92.261051,0.975435 105.68084,24.385867c8.387368,15.606955 15.097263,54.624343 18.45221,107.297817l4.193684,83.887384l-108.197051,-1.950869c-88.067367,-1.950869 -114.906945,1.950869 -145.101471,15.606955c-31.033263,15.606955 -34.38821,19.508694 -20.968421,25.361302c18.45221,8.778912 267.557047,10.729782 293.557889,2.926304zm1366.302289,-21.459563c0,-23.410433 -0.838737,-23.410433 -100.648419,-24.385867l-100.648419,-1.950869l2.51621,-73.157602c0.838737,-39.992823 3.354947,-87.789123 5.871158,-104.371513l5.032421,-32.189345l91.422314,0l90.583577,0l6.709895,-40.968257c6.709895,-48.771735 6.709895,-223.374546 -0.838737,-249.711283c-2.51621,-11.705216 -15.097263,-21.459563 -31.033263,-25.361302c-39.420631,-8.778912 -166.908628,-6.828043 -199.619365,3.901739c-29.355789,8.778912 -91.422314,72.182168 -82.196209,82.911949c2.51621,2.926304 28.517052,-1.950869 57.872841,-10.729782c53.679157,-16.58239 188.715786,-24.385867 204.651786,-11.705216c5.032421,2.926304 7.548631,43.894561 5.871158,99.494339l-2.51621,92.666296l-93.938524,2.926304l-93.938524,2.926304l-2.51621,87.789123c-1.677474,48.771735 0,119.978468 2.51621,158.995856l5.871158,71.206733l114.068208,-2.926304c114.068208,-2.926304 114.906945,-2.926304 114.906945,-25.361302zm222.265259,16.58239c0,-5.852608 -7.548631,-21.459563 -16.774737,-35.115649c-15.097263,-22.434998 -16.774737,-39.992823 -16.774737,-150.216943l0,-125.831076l95.615998,0c52.001683,0 112.390735,-2.926304 134.197892,-5.852608l39.420631,-6.828043l-2.51621,-122.904772l-2.51621,-122.904772l-117.423156,-2.926304c-64.582736,-1.950869 -132.520418,0 -151.811365,2.926304l-34.38821,5.852608l-5.032421,79.985645c-3.354947,43.894561 -3.354947,173.627376 0,287.753236l5.032421,206.792156l36.90442,0c20.129684,0 36.065684,-4.877173 36.065684,-10.729782zm1065.195769,-120.953903l0,-131.683684l23.484631,0c44.453052,0 46.130525,-5.852608 41.936841,-147.290639c-2.51621,-72.182168 -6.709895,-138.511727 -10.903579,-147.290639c-5.032421,-15.606955 -20.129684,-17.557825 -133.359155,-17.557825c-160.198734,0 -160.198734,0 -167.747365,106.322382c-3.354947,41.943692 -3.354947,103.396078 0,135.585423c5.032421,52.673474 7.548631,59.501517 32.710736,73.157602c32.710736,18.533259 37.743157,40.968257 37.743157,168.750203l0,91.690862l88.067367,0l88.067367,0l0,-131.683684zm-3543.663089,-720.846242c69.615157,-34.140214 62.066525,-114.12586 -20.968421,-222.399111c-22.645894,-30.238476 -38.581894,-56.575212 -36.065684,-60.476951c2.51621,-2.926304 26.839578,-5.852608 52.84042,-5.852608c28.517052,0 53.679157,-5.852608 63.743999,-14.63152c14.258526,-12.680651 6.709895,-13.656086 -78.002525,-14.63152c-89.74484,0 -94.777261,0.975435 -94.777261,19.508694c0,10.729782 22.645894,48.771735 51.162946,83.887384c99.809682,124.855641 95.615998,202.890417 -10.064842,179.479984c-55.356631,-12.680651 -53.679157,-12.680651 -40.259368,6.828043c12.581052,16.58239 54.517894,40.968257 72.970104,41.943692c5.871158,0 23.484631,-5.852608 39.420631,-13.656086zm228.136417,-4.877173c35.226947,-25.361302 41.098104,-51.698039 20.968421,-96.568035l-15.936,-36.091084l20.129684,-44.869996c19.290947,-42.919127 20.129684,-46.820865 7.548631,-79.985645c-21.807157,-62.427821 -104.842103,-86.813688 -150.972629,-44.869996c-11.742316,10.729782 -21.807157,23.410433 -21.807157,27.312172c0,3.901739 22.645894,2.926304 51.162946,-2.926304c67.937683,-13.656086 78.841262,-4.877173 78.841262,63.403255l0,52.673474l-31.033263,2.926304c-17.613473,1.950869 -31.871999,5.852608 -31.871999,9.754347c0.838737,3.901739 15.936,18.533259 33.549473,33.16478c24.323368,19.508694 33.549473,34.140214 33.549473,51.698039c0,33.16478 -27.678315,44.869996 -84.712419,37.066519c-49.485473,-6.828043 -51.162946,7.803478 -4.193684,32.189345c36.065684,18.533259 63.743999,16.58239 94.777261,-4.877173zm247.427364,-169.725637c11.742316,-10.729782 15.097263,-20.484129 9.226105,-24.385867c-15.097263,-11.705216 -27.678315,-48.771735 -27.678315,-83.887384c0,-28.287606 -3.354947,-35.115649 -16.774737,-35.115649c-15.097263,0 -16.774737,6.828043 -16.774737,53.648908l0,53.648908l-61.227788,0c-34.38821,0 -63.743999,2.926304 -67.098946,5.852608c-10.064842,11.705216 45.291789,99.494339 100.648419,160.946725l57.034104,62.427821l2.51621,-87.789123c1.677474,-76.083906 4.193684,-89.739992 20.129684,-105.346947zm-661.763356,-118.027598l26.839578,-18.533259l-29.355789,-7.803478c-28.517052,-7.803478 -109.035787,-1.950869 -109.035787,7.803478c0,2.926304 9.226105,12.680651 20.129684,23.410433c23.484631,21.459563 31.871999,69.255864 24.323368,148.266074c-4.193684,47.7963 -8.387368,59.501517 -25.162105,68.280429c-27.678315,14.63152 -24.323368,23.410433 20.968421,49.74717l39.420631,23.410433l2.51621,-138.511727l2.51621,-137.536292l26.839578,-18.533259zm3868.254241,109.248686c42.775578,-43.894561 35.226947,-140.462596 -13.419789,-168.750203c-26.000842,-16.58239 -41.936841,-11.705216 -80.518735,20.484129l-26.839578,23.410433l-15.936,-24.385867c-14.258526,-20.484129 -17.613473,-21.459563 -21.807157,-8.778912c-2.51621,8.778912 -5.032421,28.287606 -5.032421,43.894561c0,33.16478 -10.903579,36.091084 -28.517052,6.828043l-12.581052,-20.484129l-16.774737,23.410433l-15.936,23.410433l-6.709895,-52.673474c-5.871158,-49.74717 -6.709895,-50.722604 -16.774737,-29.263041c-11.742316,24.385867 -15.097263,105.346947 -6.709895,143.388901c6.709895,26.336737 33.549473,28.287606 39.420631,1.950869c6.709895,-32.189345 29.355789,-34.140214 48.646736,-5.852608c20.129684,29.263041 30.194526,31.21391 50.32421,9.754347c14.258526,-14.63152 16.774737,-14.63152 41.098104,9.754347c32.710736,31.21391 59.550315,32.189345 88.067367,3.901739zm91.422314,-27.312172c17.613473,-26.336737 35.226947,-48.771735 39.420631,-48.771735c4.193684,0 7.548631,17.557825 7.548631,39.017388c0,21.459563 4.193684,39.017388 8.387368,39.017388c5.032421,0 8.387368,-36.091084 8.387368,-87.789123c0,-47.7963 -1.677474,-87.789123 -4.193684,-87.789123c-2.51621,0 -19.290947,27.312172 -36.90442,60.476951l-32.710736,59.501517l-6.709895,-38.041953l-6.709895,-38.041953l-5.871158,43.894561c-6.709895,45.845431 -9.226105,107.297817 -5.032421,107.297817c1.677474,0 16.774737,-21.459563 34.38821,-48.771735zm238.201259,21.459563c5.032421,-8.778912 10.064842,-23.410433 10.064842,-33.16478c0,-13.656086 6.709895,-17.557825 33.549473,-17.557825c31.871999,0 33.549473,1.950869 33.549473,29.263041c0,16.58239 3.354947,29.263041 7.548631,29.263041c7.548631,0 17.613473,-78.034776 17.613473,-138.511727c0,-28.287606 2.51621,-35.115649 12.581052,-31.21391c10.903579,4.877173 20.968421,37.066519 46.130525,148.266074c10.903579,50.722604 23.484631,51.698039 65.421472,6.828043l32.710736,-33.16478l26.000842,33.16478c15.936,21.459563 32.710736,34.140214 46.130525,34.140214c41.098104,0 97.293472,-12.680651 93.099788,-20.484129c-2.51621,-4.877173 -9.226105,-8.778912 -15.936,-8.778912c-6.709895,0 -21.807157,-4.877173 -33.549473,-9.754347c-29.355789,-12.680651 -16.774737,-34.140214 27.678315,-43.894561l31.033263,-7.803478l-33.549473,-8.778912c-54.517894,-13.656086 -56.195367,-14.63152 -46.130525,-36.091084c4.193684,-10.729782 26.000842,-25.361302 48.646736,-33.16478l39.420631,-14.63152l-52.001683,-0.975435l-52.84042,-0.975435l0,56.575212c0,32.189345 -5.032421,64.37869 -10.903579,75.108472c-10.903579,16.58239 -12.581052,16.58239 -29.355789,-2.926304c-9.226105,-10.729782 -21.807157,-44.869996 -26.839578,-77.059341l-10.903579,-56.575212l-18.45221,66.329559c-20.968421,76.083906 -41.936841,108.273251 -54.517894,84.862819c-5.032421,-7.803478 -18.45221,-51.698039 -30.194526,-97.54347c-12.581052,-45.845431 -23.484631,-85.838253 -26.000842,-89.739992c-1.677474,-4.877173 -14.258526,6.828043 -28.517052,23.410433c-16.774737,21.459563 -24.323368,41.943692 -24.323368,63.403255c0,31.21391 -1.677474,32.189345 -32.710736,32.189345c-34.38821,0 -41.936841,-11.705216 -43.614315,-68.280429c-1.677474,-56.575212 -15.097263,16.58239 -15.097263,85.838253c-0.838737,68.280429 -1.677474,70.231298 -20.968421,70.231298c-31.871999,0 -46.969262,-34.140214 -46.969262,-104.371513c0,-45.845431 -3.354947,-61.452386 -11.742316,-61.452386c-8.387368,0 -10.903579,15.606955 -10.903579,64.37869c0.838737,58.526082 -1.677474,67.304994 -21.807157,87.789123l-22.645894,22.434998l31.871999,2.926304c50.32421,5.852608 105.68084,-2.926304 117.423156,-19.508694zm520.855569,-2.926304c13.419789,-44.869996 12.581052,-47.7963 -19.290947,-47.7963l-29.355789,0l14.258526,39.017388c7.548631,21.459563 16.774737,39.017388 20.129684,39.017388c2.51621,0 9.226105,-13.656086 14.258526,-30.238476zm124.13305,20.484129l30.194526,0l-5.032421,-60.476951c-3.354947,-44.869996 -1.677474,-66.329559 7.548631,-79.985645c22.645894,-36.091084 11.742316,-37.066519 -25.162105,-1.950869c-20.129684,19.508694 -39.420631,35.115649 -41.936841,35.115649c-2.51621,0 -5.032421,-15.606955 -5.032421,-34.140214c0,-23.410433 -4.193684,-34.140214 -12.581052,-34.140214c-14.258526,0 -16.774737,44.869996 -6.709895,134.609988c3.354947,39.017388 7.548631,50.722604 16.774737,46.820865c6.709895,-3.901739 26.000842,-5.852608 41.936841,-5.852608zm-137.552839,-102.420643c10.064842,7.803478 22.645894,14.63152 27.678315,14.63152c10.064842,0 41.936841,-75.108472 36.065684,-82.911949c-2.51621,-1.950869 -18.45221,6.828043 -35.226947,21.459563l-31.033263,25.361302l-25.162105,-20.484129c-13.419789,-11.705216 -26.839578,-21.459563 -29.355789,-21.459563c-9.226105,0 -3.354947,26.336737 14.258526,58.526082c17.613473,31.21391 19.290947,32.189345 21.807157,11.705216c2.51621,-20.484129 4.193684,-20.484129 20.968421,-6.828043zm-1126.423557,-404.8054l0,-214.595634l19.290947,0c35.226947,0 49.485473,30.238476 48.646736,101.445209c0,62.427821 0.838737,64.37869 20.129684,64.37869c20.968421,0 20.968421,-0.975435 20.968421,-91.690862l0,-91.690862l-28.517052,-5.852608c-15.936,-3.901739 -62.066525,-6.828043 -103.16463,-6.828043c-58.711578,-0.975435 -81.357472,2.926304 -104.003366,16.58239l-28.517052,18.533259l55.356631,2.926304c49.485473,2.926304 57.034104,4.877173 61.227788,24.385867c2.51621,11.705216 5.032421,97.54347 5.032421,190.209766l0,167.774768l-49.485473,0c-41.936841,0 -49.485473,2.926304 -53.679157,19.508694c-4.193684,18.533259 0,19.508694 66.260209,19.508694l70.453893,0l0,-214.595634zm791.767564,158.995856c-46.130525,-121.929337 -134.197892,-293.605844 -193.748207,-376.517793c-15.936,-22.434998 -19.290947,-24.385867 -19.290947,-9.754347c0.838737,28.287606 29.355789,94.617166 106.519577,246.784979c68.77642,134.609988 106.519577,195.08694 121.61684,195.08694c3.354947,0 -3.354947,-25.361302 -15.097263,-55.599778zm746.475775,46.820865c8.387368,-0.975435 0.838737,-410.658008 -7.548631,-445.773657c-5.032421,-18.533259 -8.387368,-20.484129 -33.549473,-10.729782c-25.162105,8.778912 -27.678315,12.680651 -24.323368,39.992823c13.419789,122.904772 19.290947,205.816721 13.419789,212.644764c-3.354947,3.901739 -49.485473,8.778912 -102.325893,9.754347l-96.454735,2.926304l-2.51621,86.813688c-1.677474,47.7963 -0.838737,91.690862 0.838737,97.54347c2.51621,6.828043 44.453052,9.754347 124.13305,9.754347c66.260209,-0.975435 124.13305,-1.950869 128.326734,-2.926304zm-2688.151527,-105.346947c1.677474,-26.336737 15.097263,-10.729782 34.38821,36.091084c34.38821,85.838253 42.775578,74.133037 14.258526,-20.484129c-14.258526,-50.722604 -30.194526,-91.690862 -35.226947,-91.690862c-10.903579,0 -43.614315,95.5926 -49.485473,146.315205l-5.032421,39.017388l20.129684,-48.771735c11.742316,-26.336737 20.968421,-54.624343 20.968421,-60.476951zm147.617681,69.255864c-8.387368,-6.828043 -19.290947,-14.63152 -24.323368,-16.58239c-5.871158,-1.950869 -5.871158,-11.705216 2.51621,-32.189345l10.903579,-28.287606l15.936,23.410433c18.45221,26.336737 18.45221,26.336737 30.194526,-13.656086c5.032421,-15.606955 11.742316,-37.066519 15.097263,-46.820865c5.871158,-15.606955 2.51621,-15.606955 -32.710736,3.901739l-38.581894,22.434998l-25.162105,-28.287606c-30.194526,-34.140214 -31.033263,-28.287606 -5.032421,61.452386c26.839578,91.690862 27.678315,91.690862 48.646736,79.010211c17.613473,-10.729782 17.613473,-11.705216 2.51621,-24.385867zm87.22863,-59.501517l0.838737,-61.452386l41.936841,-0.975435c23.484631,-0.975435 46.969262,-1.950869 52.84042,-2.926304c10.903579,-0.975435 10.903579,0 1.677474,95.5926c-5.032421,60.476951 -4.193684,64.37869 11.742316,64.37869c16.774737,0 17.613473,-4.877173 17.613473,-93.641731l0,-94.617166l-38.581894,6.828043c-21.807157,2.926304 -55.356631,5.852608 -75.486314,5.852608l-36.90442,0l0,57.550647c0,31.21391 2.51621,71.206733 5.871158,89.739992c4.193684,27.312172 5.871158,29.263041 11.742316,13.656086c3.354947,-10.729782 6.709895,-46.820865 6.709895,-79.985645zm264.2021,72.182168c39.420631,-30.238476 35.226947,-106.322382 -6.709895,-138.511727c-11.742316,-8.778912 -36.065684,-18.533259 -55.356631,-21.459563l-33.549473,-5.852608l0,95.5926l0,95.5926l37.743157,-4.877173c20.968421,-2.926304 46.969262,-12.680651 57.872841,-20.484129zm1112.165031,-62.427821c0,-47.7963 -2.51621,-102.420643 -5.032421,-121.929337l-5.871158,-37.066519l-98.970945,0l-99.809682,0l0,-87.789123l0,-87.789123l82.196209,1.950869c44.453052,0.975435 90.583577,-1.950869 102.325893,-6.828043c20.129684,-7.803478 19.290947,-8.778912 -12.581052,-15.606955c-18.45221,-3.901739 -72.131367,-7.803478 -119.100629,-7.803478l-86.389893,-0.975435l0,120.953903l0,120.953903l38.581894,6.828043c20.968421,2.926304 66.260209,2.926304 99.809682,0c58.711578,-6.828043 60.389051,-5.852608 65.421472,15.606955c3.354947,12.680651 5.871158,53.648908 5.871158,90.715427l0,67.304994l-68.77642,-6.828043c-69.615157,-5.852608 -126.649261,2.926304 -143.423997,22.434998c-6.709895,7.803478 26.839578,10.729782 118.261892,10.729782l127.487998,0l0,-84.862819zm728.023565,-27.312172c2.51621,-103.396078 -10.064842,-343.353014 -18.45221,-353.107361c-1.677474,-2.926304 -14.258526,0.975435 -27.678315,8.778912c-26.839578,14.63152 -26.839578,20.484129 -15.936,171.676507l6.709895,89.739992l-101.487156,0l-101.487156,0l0,97.54347l0,98.518904l128.326734,-2.926304l127.487998,-2.926304l2.51621,-107.297817zm-1661.537652,-70.231298c42.775578,-19.508694 75.486314,-38.041953 73.808841,-41.943692c-4.193684,-7.803478 -123.294313,-68.280429 -161.037471,-81.936515c-19.290947,-6.828043 -19.290947,-5.852608 -19.290947,81.936515c0,81.936515 1.677474,89.739992 15.097263,82.911949c7.548631,-2.926304 49.485473,-22.434998 91.422314,-40.968257zm-547.695147,-71.206733c15.097263,-43.894561 17.613473,-78.034776 5.871158,-78.034776c-5.032421,0 -9.226105,-14.63152 -10.903579,-31.21391c-1.677474,-21.459563 -7.548631,-33.16478 -16.774737,-35.115649c-13.419789,-2.926304 -15.097263,4.877173 -15.097263,68.280429c0,118.027598 13.419789,144.364335 36.90442,76.083906zm88.067367,-71.206733c0.838737,-65.354125 -0.838737,-76.083906 -12.581052,-73.157602c-7.548631,1.950869 -18.45221,19.508694 -24.323368,40.968257c-6.709895,20.484129 -15.097263,41.943692 -19.290947,46.820865c-5.871158,6.828043 0.838737,24.385867 17.613473,50.722604c32.710736,50.722604 37.743157,41.943692 38.581894,-65.354125zm-179.489681,71.206733c-6.709895,-15.606955 -15.097263,-56.575212 -18.45221,-89.739992c-5.871158,-61.452386 -5.871158,-61.452386 -11.742316,-22.434998c-4.193684,21.459563 -6.709895,57.550647 -6.709895,80.96108c-0.838737,36.091084 -3.354947,40.968257 -19.290947,40.968257c-15.936,0 -16.774737,1.950869 -6.709895,9.754347c6.709895,4.877173 26.839578,9.754347 44.453052,9.754347l31.871999,0l-13.419789,-29.263041zm306.977678,8.778912c6.709895,-16.58239 6.709895,-30.238476 -0.838737,-57.550647c-8.387368,-30.238476 -8.387368,-40.968257 3.354947,-66.329559c20.129684,-45.845431 16.774737,-46.820865 -24.323368,-7.803478l-36.90442,36.091084l-14.258526,-31.21391c-19.290947,-43.894561 -28.517052,-21.459563 -28.517052,72.182168l0,75.108472l46.130525,0c37.743157,0 46.969262,-3.901739 55.356631,-20.484129zm64.582736,-47.7963c2.51621,-69.255864 10.903579,-87.789123 40.259368,-87.789123c20.968421,0 26.000842,18.533259 30.194526,106.322382c1.677474,26.336737 6.709895,44.869996 14.258526,47.7963c9.226105,3.901739 10.903579,-8.778912 7.548631,-69.255864c-5.032421,-92.666296 -14.258526,-108.273251 -63.743999,-101.445209c-19.290947,1.950869 -37.743157,6.828043 -40.259368,8.778912c-1.677474,2.926304 -5.871158,40.968257 -9.226105,85.838253c-4.193684,67.304994 -3.354947,79.985645 6.709895,76.083906c8.387368,-2.926304 12.581052,-23.410433 14.258526,-66.329559zm-2704.926263,-726.69885c24.323368,-11.705216 32.710736,-22.434998 40.259368,-53.648908c5.871158,-21.459563 8.387368,-41.943692 5.032421,-44.869996c-2.51621,-2.926304 -20.968421,5.852608 -41.098104,18.533259c-58.711578,39.992823 -92.261051,42.919127 -136.714103,11.705216c-20.968421,-13.656086 -41.936841,-37.066519 -46.969262,-50.722604c-14.258526,-42.919127 -11.742316,-169.725637 3.354947,-204.841287c31.033263,-69.255864 91.422314,-89.739992 155.166313,-52.673474c57.872841,34.140214 68.77642,35.115649 68.77642,6.828043c0,-20.484129 4.193684,-25.361302 19.290947,-25.361302c17.613473,0 20.968421,7.803478 31.033263,56.575212c5.871158,30.238476 21.807157,90.715427 35.226947,133.634554c14.258526,42.919127 33.549473,106.322382 44.453052,141.438031l18.45221,63.403255l35.226947,0l36.065684,0l61.227788,-199.964113c33.549473,-110.224121 63.743999,-214.595634 67.098946,-231.178023c5.032421,-29.263041 3.354947,-32.189345 -14.258526,-32.189345c-29.355789,0 -42.775578,13.656086 -65.421472,70.231298l-20.968421,51.698039l-66.260209,0l-65.421472,0l-20.968421,-60.476951c-19.290947,-55.599778 -23.484631,-61.452386 -45.291789,-61.452386c-15.097263,0 -28.517052,7.803478 -38.581894,23.410433l-15.097263,22.434998l-32.710736,-25.361302c-27.678315,-20.484129 -42.775578,-25.361302 -88.906104,-25.361302c-47.807999,0 -62.066525,4.877173 -96.454735,29.263041c-71.29263,51.698039 -104.003366,168.750203 -79.679998,288.728671c17.613473,85.838253 29.355789,105.346947 86.389893,136.560858c59.550315,32.189345 119.100629,37.066519 167.747365,13.656086zm1834.317438,-18.533259c49.485473,-38.041953 75.486314,-105.346947 75.486314,-198.013244c0,-116.076729 -12.581052,-162.897595 -53.679157,-201.914982c-42.775578,-41.943692 -71.29263,-54.624343 -116.584419,-54.624343c-46.969262,0.975435 -94.777261,27.312172 -135.036629,76.083906c-32.710736,39.992823 -32.710736,39.992823 -36.90442,135.585423c-4.193684,110.224121 5.871158,163.873029 37.743157,208.743025c52.84042,72.182168 158.52126,88.764558 228.975153,34.140214zm208.006733,5.852608c6.709895,-10.729782 10.064842,-65.354125 10.064842,-194.111505l0,-177.529115l86.389893,-2.926304l85.551156,-2.926304l0,-34.140214l0,-34.140214l-62.905262,-2.926304c-34.38821,-1.950869 -90.583577,0 -123.294313,2.926304l-61.227788,6.828043l0,93.641731c0,52.673474 2.51621,157.044986 5.871158,233.128893l5.032421,139.487162l21.807157,-5.852608c11.742316,-3.901739 26.839578,-12.680651 32.710736,-21.459563zm-1414.110288,7.803478c16.774737,-5.852608 41.098104,-24.385867 52.84042,-40.968257c20.129684,-27.312172 22.645894,-38.041953 19.290947,-80.96108c-2.51621,-35.115649 -12.581052,-67.304994 -31.033263,-102.420643l-26.839578,-51.698039l32.710736,-39.992823c39.420631,-47.7963 93.938524,-127.781945 93.938524,-136.560858c0,-2.926304 -16.774737,-5.852608 -37.743157,-5.852608c-37.743157,0 -37.743157,0 -106.519577,97.54347c-64.582736,90.715427 -70.453893,96.568035 -86.389893,83.887384c-14.258526,-10.729782 -16.774737,-25.361302 -19.290947,-97.54347c-2.51621,-77.059341 -3.354947,-83.887384 -19.290947,-83.887384c-9.226105,0 -24.323368,4.877173 -33.549473,9.754347c-15.936,10.729782 -15.936,19.508694 -12.581052,232.153458c2.51621,121.929337 4.193684,222.399111 5.032421,224.349981c0.838737,6.828043 143.423997,0 169.424839,-7.803478zm396.722519,-16.58239c66.260209,-40.968257 96.454735,-102.420643 96.454735,-195.08694c-0.838737,-91.690862 -11.742316,-137.536292 -41.936841,-173.627376c-37.743157,-44.869996 -88.906104,-64.37869 -186.199575,-70.231298l-82.196209,-5.852608l0,237.030632l0,236.055197l90.583577,-3.901739c70.453893,-2.926304 97.293472,-8.778912 123.294313,-24.385867zm230.652627,-61.452386l0,-87.789123l83.873683,0l83.873683,0l0,87.789123l0,87.789123l33.549473,0l33.549473,0l0,-224.349981l0,-224.349981l-29.355789,0l-28.517052,0l-2.51621,104.371513l-2.51621,104.371513l-83.873683,0.975435l-83.873683,0l-2.51621,-109.248686c-2.51621,-115.101294 -15.936,-150.216943 -20.129684,-53.648908l-3.354947,55.599778l-6.709895,-53.648908c-7.548631,-51.698039 -8.387368,-52.673474 -15.936,-24.385867c-4.193684,16.58239 -9.226105,118.027598 -11.742316,227.276285l-5.032421,197.037809l31.033263,0l30.194526,0l0,-87.789123zm1203.587345,77.059341c20.129684,-5.852608 52.001683,-25.361302 69.615157,-43.894561c84.712419,-83.887384 84.712419,-265.318238 -0.838737,-352.131926c-39.420631,-39.992823 -76.325051,-51.698039 -171.102312,-51.698039l-78.002525,0l0,229.227154l0,229.227154l72.131367,0c39.420631,0 88.067367,-4.877173 108.197051,-10.729782zm457.11157,-18.533259l0,-29.263041l-92.261051,0l-92.261051,0l0,-58.526082l0,-57.550647l86.389893,-2.926304l85.551156,-2.926304l0,-29.263041l0,-29.263041l-84.712419,0.975435l-85.551156,0l-5.032421,-71.206733c-3.354947,-39.992823 -3.354947,-76.083906 -0.838737,-80.96108c2.51621,-5.852608 46.130525,-9.754347 97.293472,-9.754347l91.422314,0l0,-29.263041l0,-29.263041l-125.810524,0l-125.810524,0l0,229.227154l0,229.227154l125.810524,0l125.810524,0l0,-29.263041zm265.879574,12.680651c76.325051,-41.943692 79.679998,-144.364335 8.387368,-234.104327c-11.742316,-15.606955 -14.258526,-25.361302 -8.387368,-34.140214c5.032421,-6.828043 34.38821,-49.74717 66.260209,-95.5926c50.32421,-74.133037 54.517894,-82.911949 38.581894,-85.838253c-32.710736,-5.852608 -75.486314,28.287606 -126.649261,100.469774c-27.678315,39.992823 -62.066525,79.010211 -74.647578,86.813688l-24.323368,14.63152l-5.871158,-59.501517c-2.51621,-32.189345 -5.032421,-76.083906 -5.032421,-96.568035c0,-37.066519 -0.838737,-38.041953 -29.355789,-38.041953l-29.355789,0l0,229.227154l0,229.227154l80.518735,0c57.872841,0 88.906104,-4.877173 109.874524,-16.58239z" fill="#64b5f6" id="svg_2"/>
   <path d="m6392.267437,6902.927236l0,-83.887384l59.550315,3.901739c46.130525,2.926304 62.066525,7.803478 71.29263,22.434998c16.774737,26.336737 15.097263,86.813688 -2.51621,104.371513c-14.258526,14.63152 -26.000842,18.533259 -96.454735,32.189345l-31.871999,5.852608l0,-84.862819z" fill="#64b5f6" id="svg_3"/>
   <path d="m6392.267437,6597.616176l0,-98.518904l44.453052,0c55.356631,0 103.16463,15.606955 124.13305,39.992823c15.936,18.533259 20.968421,69.255864 10.903579,101.445209c-9.226105,26.336737 -49.485473,43.894561 -116.584419,50.722604l-62.905262,5.852608l0,-99.494339z" fill="#64b5f6" id="svg_4"/>
   <path d="m7046.482161,6627.854651c-11.742316,-1.950869 -41.098104,-9.754347 -65.421472,-17.557825c-48.646736,-15.606955 -62.066525,-37.066519 -53.679157,-87.789123c8.387368,-53.648908 52.84042,-67.304994 114.068208,-35.115649l33.549473,17.557825l-2.51621,62.427821c-0.838737,35.115649 -2.51621,63.403255 -3.354947,63.403255c-0.838737,0.975435 -10.903579,-0.975435 -22.645894,-2.926304z" fill="#64b5f6" id="svg_5"/>
   <path d="m9480.496429,6621.026608c-62.066525,-13.656086 -88.067367,-38.041953 -88.067367,-83.887384c0,-61.452386 56.195367,-82.911949 130.842945,-48.771735c21.807157,9.754347 22.645894,13.656086 22.645894,73.157602c0,35.115649 -2.51621,65.354125 -5.871158,67.304994c-4.193684,1.950869 -30.194526,-0.975435 -59.550315,-7.803478z" fill="#64b5f6" id="svg_6"/>
   <path d="m10778.861036,6823.917025c-15.936,-9.754347 -36.90442,-35.115649 -47.807999,-56.575212l-18.45221,-39.017388l18.45221,-6.828043c10.064842,-2.926304 55.356631,-5.852608 100.648419,-6.828043c82.196209,-0.975435 82.196209,-0.975435 76.325051,21.459563c-23.484631,90.715427 -70.453893,122.904772 -129.165471,87.789123z" fill="#64b5f6" id="svg_7"/>
   <path d="m6714.342378,3578.645786c-2.51621,-6.828043 -3.354947,-39.017388 -1.677474,-70.231298l2.51621,-57.550647l102.325893,0c56.195367,0 104.842103,3.901739 108.197051,7.803478c4.193684,3.901739 8.387368,36.091084 10.064842,70.231298l3.354947,63.403255l-109.874524,0c-85.551156,0 -111.551998,-2.926304 -114.906945,-13.656086z" fill="#64b5f6" id="svg_8"/>
   <path d="m7249.456473,3585.473829c-19.290947,-3.901739 -19.290947,-5.852608 -13.419789,-98.518904c2.51621,-51.698039 8.387368,-98.518904 11.742316,-103.396078c4.193684,-4.877173 20.968421,-4.877173 36.90442,-1.950869l30.194526,6.828043l0,101.445209l0,102.420643l-22.645894,-0.975435c-13.419789,-0.975435 -31.871999,-3.901739 -42.775578,-5.852608z" fill="#64b5f6" id="svg_9"/>
   <path d="m7168.937737,3253.826031c-2.51621,-37.066519 -1.677474,-81.936515 1.677474,-100.469774l6.709895,-34.140214l95.615998,0l96.454735,0l2.51621,93.641731l2.51621,93.641731l-77.163788,5.852608c-133.359155,11.705216 -121.61684,16.58239 -128.326734,-58.526082z" fill="#64b5f6" id="svg_10"/>
   <path d="m8080.644667,3264.555813c-12.581052,-6.828043 -15.097263,-136.560858 -2.51621,-145.33977c4.193684,-2.926304 52.84042,-2.926304 109.035787,0.975435l101.487156,6.828043l-2.51621,69.255864l-2.51621,69.255864l-96.454735,1.950869c-52.84042,0.975435 -101.487156,-0.975435 -106.519577,-2.926304z" fill="#64b5f6" id="svg_11"/>
   <path d="m4916.090623,3219.685817c0,-17.557825 2.51621,-48.771735 5.032421,-68.280429c5.871158,-37.066519 5.871158,-37.066519 45.291789,-37.066519c21.807157,0 67.937683,2.926304 103.16463,5.852608l64.582736,6.828043l0,61.452386l0,62.427821l-109.035787,0l-109.035787,0l0,-31.21391z" fill="#64b5f6" id="svg_12"/>
   <path d="m5880.637973,3529.874051c0,-34.140214 2.51621,-82.911949 5.871158,-108.273251l5.032421,-45.845431l32.710736,4.877173c18.45221,2.926304 34.38821,6.828043 35.226947,8.778912c1.677474,0.975435 5.032421,44.869996 7.548631,96.568035l5.032421,94.617166l-26.000842,5.852608c-62.905262,14.63152 -65.421472,12.680651 -65.421472,-56.575212z" fill="#64b5f6" id="svg_13"/>
   <path d="m5818.571448,3274.31016c-2.51621,-25.361302 -5.032421,-71.206733 -5.032421,-102.420643l0,-57.550647l114.068208,0l114.068208,0l-5.032421,22.434998c-2.51621,11.705216 -5.032421,57.550647 -5.032421,102.420643l0,79.985645l-104.003366,0l-103.16463,0l-5.871158,-44.869996z" fill="#64b5f6" id="svg_14"/>
   <path d="m2852.798031,2683.196733c-48.646736,-64.37869 -48.646736,-66.329559 0,-66.329559l41.936841,0l0,53.648908c0,29.263041 -2.51621,53.648908 -5.871158,52.673474c-4.193684,0 -20.129684,-18.533259 -36.065684,-39.992823z" fill="#64b5f6" id="svg_15"/>
   <path d="m6073.547443,2539.807832c0,-31.21391 5.032421,-54.624343 15.097263,-69.255864l15.936,-22.434998l17.613473,20.484129c18.45221,21.459563 31.871999,79.985645 23.484631,104.371513c-2.51621,9.754347 -15.936,14.63152 -38.581894,14.63152l-33.549473,0l0,-47.7963z" fill="#64b5f6" id="svg_16"/>
   <path d="m7096.80637,2565.169135c0,-20.484129 10.064842,-27.312172 22.645894,-15.606955c15.936,15.606955 13.419789,28.287606 -5.871158,28.287606c-9.226105,0 -16.774737,-5.852608 -16.774737,-12.680651z" fill="#64b5f6" id="svg_17"/>
   <path d="m7184.035,2271.56329c-2.51621,-6.828043 -3.354947,-32.189345 -1.677474,-55.599778l2.51621,-42.919127l86.389893,-2.926304l85.551156,-2.926304l0,59.501517l0,58.526082l-83.873683,0c-64.582736,0 -85.551156,-2.926304 -88.906104,-13.656086z" fill="#64b5f6" id="svg_18"/>
   <path d="m5142.549566,2226.693294c0,-68.280429 1.677474,-78.034776 15.097263,-78.034776c35.226947,0.975435 66.260209,59.501517 52.001683,101.445209c-7.548631,25.361302 -38.581894,54.624343 -56.195367,54.624343c-8.387368,0 -10.903579,-21.459563 -10.903579,-78.034776z" fill="#64b5f6" id="svg_19"/>
   <path d="m6825.055639,2276.440464c-2.51621,-3.901739 -2.51621,-30.238476 0.838737,-58.526082l5.032421,-49.74717l81.357472,0l81.357472,0l5.032421,49.74717c3.354947,28.287606 3.354947,54.624343 0.838737,58.526082c-2.51621,4.877173 -41.936841,8.778912 -87.22863,8.778912c-45.291789,0 -84.712419,-3.901739 -87.22863,-8.778912z" fill="#64b5f6" id="svg_20"/>
   <path d="m4989.060727,2042.336136c-5.032421,-23.410433 0,-30.238476 20.968421,-30.238476c10.903579,0 15.097263,6.828043 15.097263,24.385867c0,30.238476 -29.355789,34.140214 -36.065684,5.852608z" fill="#64b5f6" id="svg_21"/>
   <path d="m2645.630035,1187.855341c-10.903579,-24.385867 -36.065684,-124.855641 -36.065684,-145.33977c0,-12.680651 9.226105,-15.606955 42.775578,-15.606955l42.775578,0l-5.032421,32.189345c-2.51621,16.58239 -11.742316,57.550647 -20.129684,89.739992c-13.419789,50.722604 -16.774737,55.599778 -24.323368,39.017388z" fill="#64b5f6" id="svg_22"/>
   <path d="m4110.90327,1234.676207c-41.098104,-25.361302 -58.711578,-67.304994 -64.582736,-154.118682c-5.032421,-68.280429 -3.354947,-75.108472 18.45221,-113.150425c31.033263,-50.722604 52.001683,-67.304994 86.389893,-67.304994c34.38821,0 65.421472,18.533259 97.293472,56.575212c23.484631,29.263041 23.484631,32.189345 20.129684,111.199556c-4.193684,87.789123 -19.290947,134.609988 -52.001683,158.995856c-31.871999,24.385867 -72.970104,27.312172 -105.68084,7.803478z" fill="#64b5f6" id="svg_23"/>
   <path d="m2936.671714,1163.469474l0,-79.010211l52.001683,2.926304c51.162946,2.926304 51.162946,2.926304 62.066525,39.017388c5.871158,19.508694 11.742316,47.7963 13.419789,62.427821c2.51621,26.336737 0,28.287606 -47.807999,39.992823c-83.873683,20.484129 -79.679998,23.410433 -79.679998,-65.354125z" fill="#64b5f6" id="svg_24"/>
   <path d="m3290.618655,1076.655786c2.51621,-92.666296 8.387368,-171.676507 11.742316,-176.55368c15.097263,-16.58239 109.874524,28.287606 150.133892,71.206733l39.420631,40.968257l-5.871158,50.722604c-13.419789,114.12586 -53.679157,161.92216 -150.133892,174.602811l-49.485473,6.828043l4.193684,-167.774768z" fill="#64b5f6" id="svg_25"/>
   <path d="m4756.730626,1076.655786c0,-145.33977 1.677474,-167.774768 13.419789,-173.627376c24.323368,-10.729782 113.229471,14.63152 135.875366,38.041953c65.421472,70.231298 54.517894,223.374546 -19.290947,272.146281c-14.258526,8.778912 -48.646736,19.508694 -77.163788,23.410433l-52.84042,6.828043l0,-166.799333z" fill="#64b5f6" id="svg_26"/>
   <path d="m5478.044296,1158.5923l0,-83.887384l31.871999,6.828043c46.969262,9.754347 71.29263,25.361302 83.873683,54.624343c21.807157,52.673474 -22.645894,105.346947 -90.583577,105.346947l-25.162105,0l0,-82.911949z" fill="#64b5f6" id="svg_27"/>
  </g>
 </g>
</svg>